<?xml version="1.0" encoding="UTF-8"?>
<svg id="Layer_1" xmlns="http://www.w3.org/2000/svg" viewBox="0 0 564.98 612.29">
  <defs>
    <style>
      .cls-1 {
        fill: #d8e5f1;
      }

      .cls-2 {
        fill: #314452;
      }

      .cls-3 {
        fill: #5c96d0;
      }

      .cls-4 {
        fill: #26323d;
      }

      .cls-5 {
        fill: #fffeff;
      }

      .cls-6, .cls-7 {
        fill: #fff;
      }

      .cls-7 {
        stroke: #fff;
        stroke-miterlimit: 10;
      }
    </style>
  </defs>
  <rect class="cls-3" x="82.74" y="82.74" width="399.5" height="399.5" transform="translate(282.49 -117.01) rotate(45)"/>
  <rect class="cls-6" x="425.63" y="457.33" width="26.69" height="26.69" transform="translate(461.39 -172.54) rotate(45)"/>
  <rect class="cls-6" x="157.92" y="497.62" width="42.76" height="42.76" transform="translate(419.5 25.23) rotate(45)"/>
  <rect class="cls-6" x="361" y="498.33" width="42.76" height="42.76" transform="translate(479.49 -118.16) rotate(45)"/>
  <rect class="cls-4" x="161.75" y="502.16" width="35.1" height="35.1" transform="translate(420 25.44) rotate(45)"/>
  <rect class="cls-1" x="428.48" y="460.18" width="20.99" height="20.99" transform="translate(461.39 -172.54) rotate(45)"/>
  <rect class="cls-4" x="364.83" y="502.16" width="35.1" height="35.1" transform="translate(479.49 -118.16) rotate(45)"/>
  <rect class="cls-6" x="100.69" y="457.42" width="26.69" height="26.69" transform="translate(366.28 57.25) rotate(45)"/>
  <rect class="cls-1" x="103.17" y="460.18" width="20.99" height="20.99" transform="translate(366.11 57.48) rotate(45)"/>
  <rect class="cls-6" x="246.61" y="531.53" width="66.91" height="66.91" transform="translate(481.53 -32.55) rotate(45)"/>
  <rect class="cls-1" x="251.3" y="536.31" width="57.84" height="57.84" transform="translate(481.75 -32.6) rotate(45)"/>
  <path class="cls-6" d="M102.58,224.47c3.19-.52,13.41-1.76,23.65,4.21,13.74,8.01,16.58,22.63,17.17,26.56,2.68,17.87-8.75,30.39-9.72,31.1-1.2.88-1.83,1.2-1.83,1.2-.92.47-1.37.51-1.41.74-.1.59,2.46,1.43,3.89,1.94,4.88,1.75,8.22,2.96,10.04,5.51,2.07,2.9,1.45,6.56,1.3,7.45-.66,3.84-3.21,6.24-4.86,7.77-1.2,1.12-2.09,1.95-3.56,2.59-3.9,1.69-7.13,0-8.1,1.62-.68,1.15,0,3.56,0,3.56-.72,5.69-.44,10.31,0,13.61,1.24,9.32,5.18,19.11,5.18,19.11,2.88.61,4.78,1.8,5.83,2.59,3.37,2.53,4.85,6.07,5.83,8.42,1.1,2.63.66,2.72,1.62,4.54,1.32,2.5,2.73,3.41,6.16,6.48,3.63,3.25,5.44,4.88,7.45,7.45,1.95,2.49,2.98,4.45,4.21,6.8,1.81,3.45,1.93,4.54,1.94,5.18.08,3.07-1.76,5.48-2.27,6.16-1.34,1.76-3.56,3.56-3.56,3.56,2.2.9,3.35,2.2,3.89,2.92,1.48,1.97,1.68,4.13,1.94,6.8.19,1.93.28,2.89,0,3.89-.94,3.35-4.54,5.83-4.54,5.83,0,0-10.04,3.24-10.04,3.24-14.15-.32-28.29-.65-42.44-.97"/>
  <path class="cls-5" d="M111.78,224.47c-3.19-.52-13.41-1.76-23.65,4.21-13.74,8.01-16.58,22.63-17.17,26.56-2.68,17.87,8.75,30.39,9.72,31.1,1.2.88,1.83,1.2,1.83,1.2.92.47,1.37.51,1.41.74.1.59-2.46,1.43-3.89,1.94-4.88,1.75-8.22,2.96-10.04,5.51-2.07,2.9-1.45,6.56-1.3,7.45.66,3.84,3.21,6.24,4.86,7.77,1.2,1.12,2.09,1.95,3.56,2.59,3.9,1.69,7.13,0,8.1,1.62.68,1.15,0,3.56,0,3.56.72,5.69.44,10.31,0,13.61-1.24,9.32-5.18,19.11-5.18,19.11-2.88.61-4.78,1.8-5.83,2.59-3.37,2.53-4.85,6.07-5.83,8.42-1.1,2.63-.66,2.72-1.62,4.54-1.32,2.5-2.73,3.41-6.16,6.48-3.63,3.25-5.44,4.88-7.45,7.45-1.95,2.49-2.98,4.45-4.21,6.8-1.81,3.45-1.93,4.54-1.94,5.18-.08,3.07,1.76,5.48,2.27,6.16,1.34,1.76,3.56,3.56,3.56,3.56-2.2.9-3.35,2.2-3.89,2.92-1.48,1.97-1.68,4.13-1.94,6.8-.19,1.93-.28,2.89,0,3.89.94,3.35,4.54,5.83,4.54,5.83,0,0,10.04,3.24,10.04,3.24,16.26-.32,32.53-.65,48.79-.97"/>
  <path class="cls-1" d="M107.76,230.3c3.78-3.08,13.17,3.17,17.17,5.83,4.32,2.88,5.29,4.44,5.73,5.91,1.15,3.85-1.2,7.4-1.46,7.77-1.69,2.46-3.72,2.89-6.07,4.37-5.12,3.21-7.29,8.55-8.26,10.93-2.49,6.12-1.01,12.26,1.94,24.54.31,1.28.87,3.44,2.67,5.35,2.03,2.14,4.59,2.87,6.07,3.16.68,1.58,1.84,3.71,3.89,5.59,2.59,2.39,5.44,3.32,5.28,3.77-.14.37-2.1-.39-5.59-.36-3.39.02-4.98.8-5.83,1.34,0,0-.82.52-1.53,1.27-4.69,4.93,3.12,36.5,6.76,44.79.69,1.56,1.29,2.45,2.18,3.14,1.62,1.26,2.82.83,4.86,2.31,1.39,1,2.13,2.15,2.31,2.43,1.13,1.81.96,3.14,1.46,5.1.74,2.88,2.46,4.88,2.92,5.47,1.43,1.86,2.01,1.84,2.73,3.38.47,1.01.65,2.07.98,4.16.32,1.98.49,3.08.49,3.89-.01,2.86-2.25,4.73-4.86,7.53-2.55,2.73-.19.69-8.75,11.66-3.52,4.52-4.79,5.97-4.62,8.26.13,1.77,1.06,3.23.24,5.1-.35.81-1.41,2.55-2.43,2.43,0,0,0,0,0,0-.04,0-2.63-.04-2.67-.04-32.28-.54-28.98-.47-33.84-.56-4.28-.08-17.68-.38-28.06-.49-.75,0-1.15-.01-1.15-.01,0,0,65.72,1.11,65.72,1.11s-65.72-1.11-65.72-1.11c0,0-2.81-1.12-4.02-2.78-1.5-2.06-1.15-5.82.73-7.77,1.46-1.53,3.99-2.1,4.37-2.19,1.59-.36,2.67-.19,3.16-.97.58-.91-.17-2.3-.24-2.43-.77-1.39-1.99-1.34-3.64-2.43-2.53-1.68-3.46-4.33-3.64-4.86-.86-2.44-.4-4.62-.24-5.35.98-4.44,4.43-5.24,11.96-12.76,5.68-5.66,5.77-7.44,5.95-8.38.48-2.46-.77-4.04.61-6.07.37-.55.82-.9,1.7-1.58,2.63-2.03,4.24-2.3,5.83-3.4.8-.55.81-.79,3.64-5.1,2.8-4.27,4.22-6.41,5.04-6.92,3.15-1.97,5.73-.36,7.29-2.43.62-.82.58-2.34.49-5.35-.14-4.49-.22-6.74-1.21-8.02-1.96-2.51-4.87-1.52-5.77-3.64-.81-1.91,1.56-2.68,1.81-6.4.17-2.59-.67-6.84-.96-9.75-.02-.24-.07-.77.24-1.21.41-.58,1.19-.69,1.58-.73,3.34-.36,6.46.97,8.87-.36,1.16-.64,1.88-1.76,2.07-2.07,0,0,.65-1.07.85-2.43.55-3.77-2.31-57.31-.49-69.61.1-.64.34-2.08,1.46-3Z"/>
  <path class="cls-6" d="M450.08,224.47c3.19-.52,13.41-1.76,23.65,4.21,13.74,8.01,16.58,22.63,17.17,26.56,2.68,17.87-8.75,30.39-9.72,31.1-1.2.88-1.83,1.2-1.83,1.2-.92.47-1.37.51-1.41.74-.1.59,2.46,1.43,3.89,1.94,4.88,1.75,8.22,2.96,10.04,5.51,2.07,2.9,1.45,6.56,1.3,7.45-.66,3.84-3.21,6.24-4.86,7.77-1.2,1.12-2.09,1.95-3.56,2.59-3.9,1.69-7.13,0-8.1,1.62-.68,1.15,0,3.56,0,3.56-.72,5.69-.44,10.31,0,13.61,1.24,9.32,5.18,19.11,5.18,19.11,2.88.61,4.78,1.8,5.83,2.59,3.37,2.53,4.85,6.07,5.83,8.42,1.1,2.63.66,2.72,1.62,4.54,1.32,2.5,2.73,3.41,6.16,6.48,3.63,3.25,5.44,4.88,7.45,7.45,1.95,2.49,2.98,4.45,4.21,6.8,1.81,3.45,1.93,4.54,1.94,5.18.08,3.07-1.76,5.48-2.27,6.16-1.34,1.76-3.56,3.56-3.56,3.56,2.2.9,3.35,2.2,3.89,2.92,1.48,1.97,1.68,4.13,1.94,6.8.19,1.93.28,2.89,0,3.89-.94,3.35-4.54,5.83-4.54,5.83,0,0-10.04,3.24-10.04,3.24-14.15-.32-28.29-.65-42.44-.97"/>
  <path class="cls-5" d="M459.28,224.47c-3.19-.52-13.41-1.76-23.65,4.21-13.74,8.01-16.58,22.63-17.17,26.56-2.68,17.87,8.75,30.39,9.72,31.1,1.2.88,1.83,1.2,1.83,1.2.92.47,1.37.51,1.41.74.1.59-2.46,1.43-3.89,1.94-4.88,1.75-8.22,2.96-10.04,5.51-2.07,2.9-1.45,6.56-1.3,7.45.66,3.84,3.21,6.24,4.86,7.77,1.2,1.12,2.09,1.95,3.56,2.59,3.9,1.69,7.13,0,8.1,1.62.68,1.15,0,3.56,0,3.56.72,5.69.44,10.31,0,13.61-1.24,9.32-5.18,19.11-5.18,19.11-2.88.61-4.78,1.8-5.83,2.59-3.37,2.53-4.85,6.07-5.83,8.42-1.1,2.63-.66,2.72-1.62,4.54-1.32,2.5-2.73,3.41-6.16,6.48-3.63,3.25-5.44,4.88-7.45,7.45-1.95,2.49-2.98,4.45-4.21,6.8-1.81,3.45-1.93,4.54-1.94,5.18-.08,3.07,1.76,5.48,2.27,6.16,1.34,1.76,3.56,3.56,3.56,3.56-2.2.9-3.35,2.2-3.89,2.92-1.48,1.97-1.68,4.13-1.94,6.8-.19,1.93-.28,2.89,0,3.89.94,3.35,4.54,5.83,4.54,5.83,0,0,10.04,3.24,10.04,3.24,16.26-.32,32.53-.65,48.79-.97"/>
  <path class="cls-1" d="M455.27,230.3c3.56-2.89,12.62,2.25,17.17,5.83,7.39,5.82,10.74,13.69,12.31,19.11,0,0,2.09,11.35-4.54,22.03-2.94,4.74-7.77,9.49-10,9.84-.1.02-1.43.22-2.63,1.17-.41.33-.95.76-1.01,1.38-.09.83.71,1.57,1.34,2.07,4.05,3.17,16.64,7.77,16.64,7.77.39.29.83.72,1.09,1.34.97,2.25-.91,5.73-3.4,6.68-1.54.59-1.74-.39-5.59-.36-3.39.02-4.98.8-5.83,1.34,0,0-.82.52-1.53,1.27-4.69,4.93,3.12,36.5,6.76,44.79.69,1.56,1.29,2.45,2.18,3.14,1.62,1.26,2.82.83,4.86,2.31,1.39,1,2.13,2.15,2.31,2.43,1.13,1.81.96,3.14,1.46,5.1.49,1.91,1.3,3.1,2.92,5.47,2.4,3.51,5.04,5.73,8.99,8.99,3.74,3.09,5.05,3.7,6.32,6.07.59,1.1,1.69,3.24,1.21,5.83-.55,3.06-2.96,4.95-3.16,5.1-2.01,1.54-3.81,1.34-4.49,3.04-.1.24-.47,1.24,0,2.07.11.19.4.62,1.7,1.09,1.51.55,2.06.31,2.92.61,1.78.62,2.56,2.75,2.79,3.4.64,1.77.74,4.36-.73,6.07-.22.26-.62.66-2.19,1.46-2.03,1.04-4.13,1.78-5.35,2.07-16.07,3.73-60.74,0-60.74,0-.17,0-.83.19-1.46-.12-1.24-.62-1.34-2.55-1.58-4.25-.45-3.18-1.45-5.93-2.19-7.41-.64-1.28-2.13-2.72-5.1-5.59-3.73-3.6-4.59-3.91-5.95-6.07-.97-1.54-2.02-3.25-1.94-5.47.05-1.37.48-1.7.24-2.92-.08-.41-.27-1.09-2.31-4.01-1.14-1.63-1.32-1.76-1.46-2.31-.36-1.46.35-2.82.97-3.89,3.27-5.63,5.39-5.49,5.95-8.38.48-2.46-.77-4.04.61-6.07.37-.55.82-.9,1.7-1.58,2.63-2.03,4.24-2.3,5.83-3.4,1.79-1.24,2.58-2.85,3.64-5.1,6.26-13.21,5.83-26.36,5.83-26.36-.18-5.39,1.44-10.8.85-16.16-.02-.15-.09-.73.24-1.21.41-.58,1.19-.69,1.58-.73,3.34-.36,6.46.97,8.87-.36,1.16-.64,1.88-1.76,2.07-2.07,0,0,.65-1.07.85-2.43.55-3.77-2.31-57.31-.49-69.61.1-.64.34-2.08,1.46-3Z"/>
  <path class="cls-6" d="M316.05,208.03s35.56.42,103.02,1.21c.32,11.01.65,22.03.97,33.04.93.53,2.92,1.85,4.13,4.37.55,1.15,1.65,3.44.73,5.1-1.07,1.94-3.76.97-7.53,2.67-3.63,1.63-5.6,4.54-6.8,6.32-1.69,2.49-4.27,6.3-3.4,10.2.27,1.23.79,2.05.49,3.4-.45,1.96-1.94,1.96-2.67,4.13,0,0-.18.54-.24,4.62.89,25.27,1.78,50.54,2.67,75.8,3.07,2.92,5.3,5.58,6.8,7.53,2.63,3.41,2.85,4.4,2.92,5.1.22,2.34-1.14,3.23-1.46,7.53-.14,1.94.05,2.86.49,3.64.79,1.42,1.77,1.3,2.67,2.43,1.61,2.01.04,4.29.73,7.29.56,2.43,2.14,3.36,4.62,5.83.96.96,6.15,6.24,8.75,12.88.45,1.16,3.21,8.45.73,12.63-1.79,3.02-3.78,3.99-3.78,3.99-.83.4-1.57.56-1.57.87,0,.76,4.44.24,6.32,2.67.27.34.89,1.28.73,4.62-.17,3.44-.28,6.53-2.19,9.23-3.33,4.74-10.69,6.32-10.69,6.32,0,0-74.83-.49-74.83-.49-.01-.02-30.22-24.75-35.96-56.37-2.51-13.83.23-25.83,4.86-27.94.65-.3,2.3-.84,3.89-2.43,2.42-2.43,2.99-5.6,3.4-8.02.46-2.74.16-3.64.24-8.26.06-3.6.29-5.63.49-8.26.99-13.59,2.19-60.5,2.19-60.5-2.85-5.1-2.99-5.49-3.16-6.07-.49-1.7-.14-1.8-.73-6.56,0,0-.16-1.31-.49-3.4-1.31-8.48-19.52-37.39-12.63-48.11,1.52-2.37,6.32-7.04,6.32-7.05Z"/>
  <path class="cls-2" d="M335,274.36c2.33-1.32,5.34-2.7,8.99-3.64,8.59-2.23,15.97-.84,19.92.24,1.15.18,2.2.51,3.16.97,20.26,9.8,4.17,81.11-.24,99.62-6.16.28-13.19.22-20.89-.49-6.52-.6-12.46-1.56-17.74-2.67,0,0,1.84-4.63,2.43-9.23.68-5.29-.79-6.67.49-11.91.49-2.01,1.1-3.43,1.23-3.75,2.05-4.85,1.62-21.18,2.39-37.1.06-1.29.05-.9.13-2.4.65-13.16.43-23.13.14-29.64Z"/>
  <path class="cls-2" d="M368.54,215.69c.29,5.06.46,10.37.47,15.91.02,7.46-.26,14.52-.73,21.14-1.46-.32-2.92-.65-4.37-.97,0,0-31.1-.49-31.1-.49,0,0-.52-5.59-3.4-9.48-1.65-2.23-2.07-1.19-4.86-4.13-3.33-3.51-5.59-8.02-5.59-8.02,3.6-3.77,3.89-7.29,3.89-7.29.3-3.64-2.43-7.53-2.43-7.53,0,0,15.31.24,15.31.24,0,0,.97,14.33.97,14.33,0,0,9.72.73,9.72.73,0,0,.97-15.06.97-15.06.37,0,.75,0,1.12.01,6.74.1,13.41.3,20.03.59Z"/>
  <path class="cls-4" d="M366.5,215.72s6.59-.13,16.85-.32c.14,1.07.3,2.64.32,4.54.08,5.23-.92,6.5,0,8.1,1.68,2.91,7.97,3.77,10.37,1.3,1.3-1.35,1.3-3.52,1.3-6.16,0-3.76-1.09-5.92,0-6.8.66-.54,1.67-.22,2.59,0,0,0,.76.18,14.58-.65.05,15.95.16,27.19.48,30.73.05.51.16,1.63-.48,2.64-1.54,2.43-6.48,2.59-6.48,2.59,1.11,3.83.52,5.59-.32,6.48-2.04,2.13-6.33-.1-8.1,2.27-1.18,1.58-.97,4.86-.97,4.86,1.75-.27,3.4.36,4.21,1.62.93,1.45.36,3.13.32,3.24-.6,1.7-2.07,1.7-3.24,3.56,0,0-.72,1.15-.97,3.24-.8,6.75,4.99,89.73,4.94,89.69,0,0-.08-.28-.08-.28.75,0,3.6.09,5.83,2.27.57.55,1.65,1.61,1.94,3.24.54,3.03-1.94,6.48-1.94,6.48-3.13.57-4,1.51-4.21,2.27-.54,1.94,2.59,5.18,2.59,5.18,1.53-.13,3.62-.04,4.86,1.3,1.32,1.43.61,3.14,1.3,6.16.61,2.69,1.88,4.41,3.89,7.13,1.89,2.55,2.44,2.51,6.48,6.8,4.88,5.18,5.32,6.56,5.51,7.45.67,3.21-.71,6.08-1.3,7.13-2.94,5.25-9.04,5.98-8.75,7.77.26,1.6,5.09.64,7.77,3.89,1.97,2.39,2.36,6.56.65,8.42-1.78,1.94-4.64.11-7.77,2.59-.56.44-1.45,1.27-2.92,1.62-1.24.29-2.26.09-2.55.03-4.53-.82-44.49-2.54-53.17-.07-.46.13-1.82.56-3.24.03-1.94-.71-2.66-2.69-3.89-4.86-1.08-1.9-2.39-3.43-5.02-6.48-4.95-5.74-7.14-5.33-8.26-8.75-.77-2.35.26-2.56-.24-7.29-.41-3.87-.67-6.33-2.19-8.5-3.04-4.35-7.58-2.42-10.69-6.8-1.52-2.13-.3-2.4-2.43-7.77-1.98-5-3.8-6.7-2.92-8.26.89-1.58,3.23-.69,5.59-3.16.47-.49,1.82-1.9,1.46-3.16-.32-1.11-1.64-.95-3.4-2.43-.46-.38-2.12-1.81-2.67-4.13-.1-.4-.75-3.15.73-4.86,1.24-1.44,3.39-1.46,4.37-1.46,10.26.02,37.66.24,37.66.24v-94.03h-30.13c-2.49-.25-4.45-1.87-4.86-3.89-.25-1.25.07-2.78,1.01-3.81,1.27-1.38,2.68-.76,3.61-2.02.89-1.2.8-3.39-.24-4.37-1.69-1.59-6.07-.24-6.07-.24,3.15-5.84,4.86-8.99,4.86-8.99,0,0,32.55-.73,32.56-.73,0,0,.89-34.58.89-34.58Z"/>
  <path class="cls-6" d="M154.72,217.26c-.12-1.15-1.11-1.8-2.19-2.67-.36-.29-8.04-6.64-8.5-13.61-.03-.48-.23-4.78,2.67-7.77,1.64-1.69,3.69-2.26,5.1-2.67,3.25-.94,6.02-.65,7.29-.49,8.12,1.07,12.31,4.8,23.57,8.5,4.02,1.32,7.05,2.02,7.77,2.19,6.21,1.41,9.54,1.38,12.88,1.94,4.75.8,8.51,3.06,16.04,7.53,5.53,3.29,12.31,7.38,19.19,14.82,0,0,3.51,3.8,6.56,8.26,18.52,27.12,16.04,84.79,16.04,84.79-1.16,26.8-1.99,46.19-11.66,69.97-13.18,32.43-39.36,64.62-39.36,64.63,0,0-63.17,0-63.17,0-7.23-1.3-8-1.53-9.23-1.94-3.47-1.15-5.21-1.72-6.8-3.4-2.89-3.03-4.23-8.5-2.19-11.66,1.17-1.8,3.09-2.32,3.16-4.13.05-1.28-.86-2.21-1.46-2.92-3.85-4.58-4-11.56-3.4-15.06.33-1.91.95-3.13,2.19-5.59,4.53-8.96,9.12-10.31,13.61-18.71,2.21-4.14.53-6.08,2.92-9.48,2.35-3.35,5.4-4.65,5.02-6.66-.29-1.51-2.15-1.46-4-3.63-1.77-2.08-1.39-3.68-2.36-6.9-2.01-6.7-5.73-6.72-5.81-11.08-.03-1.58.46-1.52,3.27-8.17,1.9-4.51,1.72-4.65,3.42-8.7,1.89-4.51,3.28-7.82,5.26-10.98,1.69-2.7,2.57-3.33,8.76-9.74,1.35-1.4,8.37-8.73,15.44-17.98,2.82-3.69,4.76-6.53,4-7.45-.54-.65-2.11.04-6.9,1.27-5.74,1.47-5.64,1.03-7.08,1.63-5.31,2.22-3.99,7.12-9.08,11.62-6.15,5.44-14.96,4.4-18.34,4-2.87-.34-6.32-.8-7.86-3.28-.93-1.5-.53-2.72-1.94-4.37-.42-.48-1.76-1.19-4.37-2.67-2.64-1.49-4.61-2.75-4.86-2.92-3.14-2.06-4.7-3.58-4.13-27.94,0,0,1.79-4.31,2.02-4.84,2.22-5.2,8.51-8.16,15.72-15.32,4.46-4.43,7.41-8.61,8.02-9.48,4.73-6.77,4.11-8.58,8.02-12.15,3.52-3.21,7.04-4.51,6.8-6.8Z"/>
  <path class="cls-2" d="M152.29,197.58c2.98-1.61,7.31,2.48,17.98,9.72,6.77,4.59,10.15,6.88,13.36,8.26,8.55,3.67,11.23,1.85,16.52,5.59,2.28,1.61,3.61,3.24,8.99,11.91,5.34,8.6,8.42,12.77,10.45,17.49,2.68,6.26,3.73,11.38,4.37,14.58,2.52,12.62,4.01,35.86-5.83,58.8-3.46,8.06-8.21,19.13-13.87,23.11-.78.55-3.22,2.11-4.35,5.07-.91,2.39-.41,4.21-.24,7.05.05.83.42,7.44-1.21,10.93-3.92,8.35-24.85,10.7-31.18,3.4-1.23-1.42-2.58-3.98-5.75-5.1-3.15-1.11-4.17.58-6.56-.49-3.89-1.73-2-6.57-7.05-11.91-.8-.84-1.97-1.92-2.19-3.64-.26-2.1,1.08-3.86,1.46-4.37,3.98-5.41,3.6-11.61,13.12-24.78,6.96-9.62,20.75-25.1,25.17-28.74.25-.2,2.36-1.92,3.5-4.79.55-1.39.57-2.27.49-2.92-.26-1.94-1.64-3.15-1.94-3.4-1.29-1.08-2.95-1.35-7.53-.97-3.54.29-6.29.76-8.75,1.21-8.39,1.55-9.55,2.23-10.45,2.92-2.27,1.74-3.9,4.35-4.37,5.1-1.43,2.29-1.42,3.23-2.92,4.86-1.64,1.79-3.45,2.63-4.62,3.16-.66.3-3.19,1.39-6.8,1.46-2.85.05-6,.11-7.05-1.7-.9-1.55.03-4.29.97-5.83.63-1.04,1.4-1.72,1.46-3.04.01-.3.06-1.48-.73-2.07-.62-.46-1.43-.3-1.7-.24-1.27.26-1.85,1.2-2.55,1.82-1.73,1.53-4.99,1.84-7.17.61-2.07-1.16-3.03-3.63-3.16-5.35-.07-.91.12-1.28-.04-2.78-.03-.31-.16-1.42-.69-3.3-.45-1.59-.9-2.73-.97-2.92-.9-2.38.36-8.65,6.56-15.79,4.65-5.36,5.71-3.83,10.45-8.99,3.76-4.1,2.95-4.91,9.96-15.06,3.87-5.6,5.84-8.42,7.53-9.48,2.3-1.43,6.54-3.24,9.23-6.56.47-.58,1.24-1.64.97-2.67-.29-1.12-1.65-1.58-2.43-1.94-4.81-2.24-3.32-7.95-8.75-11.91-1.85-1.35-3.49-1.75-3.64-3.16-.14-1.2.87-2.58,1.94-3.16Z"/>
  <path class="cls-4" d="M150.47,199.28c-.25-.91,1.51-2.4,3.28-2.92.58-.17,1.23-.25,2.67-.12,2.29.21,3.99.71,6.07,1.34,3.42,1.03,5.14,1.55,5.22,1.58,1.72.61,2.22.9,7.05,3.04,3.01,1.33,4.52,2,5.59,2.43,2.14.85,4.25,1.69,7.05,2.43,1.12.3,3.03.65,6.8,1.34,4.88.89,5.05.86,6.44,1.21,3.24.82,5.06,1.28,7.05,2.67,2.19,1.54,3.37,3.35,4.25,4.74,1.95,3.07,2.69,5.95,3.16,8.14,2.12,9.87,1.11,16.39,2.07,16.52.78.11,2.35-4.08,2.79-8.26.23-2.19.11-4.17-.12-8.14-.24-4.01-.61-7.13,0-7.29.25-.06.44.41,1.46,1.34.76.69,1.35,1.06,1.94,1.46,2.95,1.99,4.44,3,5.59,4.49,1.24,1.62,1.66,3.25,2.31,5.83.32,1.28.46,2.31.73,4.37.5,3.82.75,5.73.36,7.05-.44,1.51-.89,1.38-2.19,4.62-.81,2.03-.9,2.73-.85,3.4.11,1.36.73,1.75,1.46,3.52.35.85,1.05,2.57.97,4.37-.15,3.27-2.8,4.78-2.07,5.95.45.71,1.88.87,2.43.36.34-.31.16-.72.36-1.58.2-.86.78-2.16,1.58-2.43.89-.3,1.5.87,3.28,1.94,2.47,1.49,6.34,2.3,8.14.85.34-.27.71-.71,1.09-.61.62.18.7,1.67.73,2.19.32,6.05-6.44,17.25-6.44,17.25-3.48,5.76-5.22,8.64-7.41,11.42-3.36,4.25-5.79,6.33-5.22,7.17.56.83,4.01.24,4.98-1.58.58-1.09.09-2.26.97-3.04.64-.56,1.52-.49,1.82-.49,4.69.09,13.61-11.91,13.61-11.91.28,1.3.64,3.09.97,5.22.55,3.18.71,5.51.97,9.23.31,4.41.46,6.61.24,7.9-.27,1.56-1.03,4.54-4.01,8.26-8.15,10.18-29.17,21.32-28.43,23.2.73,1.84,22.85-3.5,27.58-8.02.41-.39,2.32-2.34,3.64-1.82.72.28,1.01,1.19,1.09,1.46.49,1.52-.22,2.97-.61,3.89-1.66,3.92-2.13,9.03-2.07,11.78.01.61.06,1.46-.36,2.43-.84,1.91-2.82,2.74-3.52,3.04-4.67,1.99-17.64,8.4-17.37,9.35.26.93,13.72-.97,15.9-2.12.13-.07.71-.4.99-.18.35.27.03,1.24-.12,1.7-1.88,5.57-2.82,8.36-4.37,8.87-1.15.38-1.27-.3-3.89-.12-1.96.13-3.5.24-4.37,1.34-.97,1.22-.78,3.25,0,4.62,1.17,2.04,2.97,1.4,5.59,3.52,2.66,2.16,3.6,5.1,3.89,6.2.76,2.89.2,5.34,0,6.2-.5,2.1-1.09,2.23-1.94,5.1-.84,2.84-.35,3.02-1.09,4.74-1.24,2.86-3.51,4.45-4.13,4.86-1.68,1.11-2.05.68-4.62,2.07-1.84.99-3.03,1.63-4.13,2.92-2.34,2.71-2.44,6.11-2.43,7.05.01,1.86.51,1.76.49,3.89-.02,2.13-.53,3.84-.97,5.35-.5,1.69-.75,2.53-1.34,3.52-1.13,1.91-2.46,2.64-4.01,3.89-1.82,1.46-1.2,1.44-5.1,5.71-3.76,4.12-7.65,7.77-7.65,7.77,0,0-57.58-.36-57.58-.36,0,0-4.51.21-7.77-1.94-.53-.35-1.9-1.28-2.79-3.04-1.08-2.13-1.36-5.31.24-6.92.37-.38.86-.58,1.82-.97,3.84-1.56,6.11-1.11,6.56-2.31.22-.58-.08-1.33-.49-1.7-.53-.48-1.32-.38-1.58-.36-2.18.14-5.53-2.97-7.17-6.07-1.99-3.77-1.39-7.4-1.21-8.38.54-2.98,1.9-4.66,5.83-9.48,7.33-8.99,10.99-13.53,11.18-15.67.18-2.12-.19-4.93,1.34-8.5.58-1.36,1.1-2.51,2.31-3.4,1.5-1.1,2.67-.75,4.86-2.19,1.04-.68,1.67-1.1,2.07-1.94.63-1.36.34-3.21-.36-4.49-.39-.71-.86-1.17-.73-1.34.21-.27,1.69.59,1.94.73,5.19,2.89,18.87-2.41,30.01-.73.85.13,1.84.32,2.67-.25,2.61-1.78-1-7.79,1.21-14.7.53-1.65.89-1.8,4.49-7.17,0,0,.97-1.45,7.65-12.03,3.02-4.79,8.33-14.34,11.66-25.88,3.54-12.26,3.56-22.31,3.52-25.15-.08-6.56-.6-26.23-13.73-44.46-3.79-5.26-11.54-16.02-23.57-19.44-1.87-.53-2.98-.64-5.71-1.58-4.48-1.54-13.2-4.54-19.44-11.42-1.63-1.8-3.04-3.8-5.95-4.86-2.65-.96-4.85-.52-5.1-1.46Z"/>
  <path class="cls-7" d="M280.3,57.14c-1.04-.05-2.65-.02-4.5.5-1.23.34-6.07,1.69-7.77,5.51-.54,1.22-1.27,3.82-1.97,5.46-.13.3-.41.95-.95,1.67-.94,1.28-1.6,2-10.69,6.16,3,5.26,3.12,7.51,2.27,8.42-2.02,2.18-11.01-1.62-11.01-1.62-.11,15.12-.22,30.24-.32,45.35,3.78-1.19,7.56-2.38,11.34-3.56-2.27,3.37-4.53,7.72-2.92,10.37,1.14,1.86,3.44,1.65,3.56,2.59.44,3.19-26.32,4.56-31.42,17.49-.97,2.46-.66,5.02,0,10.04,3.12,23.71,17.17,43.73,17.17,43.73-3.49,5.03-3.86,8.81-3.56,11.34.4,3.38,1.94,3.93,1.94,7.45,0,5.54-3.81,9.62-4.21,10.04-1.96,2.04-2.6,1.47-4.54,3.56-.92.99-3.85,4.15-3.89,8.75-.03,3.62,1.75,7.28,4.54,9.39,0,0,1.99,1.52,12.96,2.92,2.07,11.25,4.08,26.02,4.54,43.41.15,5.73.38,15.53-.65,27.86,0,0-1.52,18.14-14.9,69-1.58.23-5.69,1.06-9.07,4.54-.82.84-3.61,3.91-4.21,8.42-.51,3.84,1.01,5.28,0,8.75-.72,2.46-2.16,4.03-3.24,5.18-13.92,14.85-14.93,15.85-16.2,18.14-.57,1.02-6.12,11.4-2.27,19.44,1.84,2.81,3.67,5.62,5.51,8.42-.53.22-5.02,2.12-6.16,6.8-.78,2.48.08,4.85.49,5.81,0,0,.07.17.16.34,1.3,2.71,6.47,5.38,8.75,6.48,29.79-.3,53.93-.34,70.3-.32,31.81.03,72.57.32,72.57.32,0,0,6.65-2.16,8.75-6.48.07-.14.12-.27.16-.34,0,0,1.19-2.79.49-5.81-.91-3.89-5.54-3.83-6.16-6.8-.57-2.76,3.29-3.43,5.51-8.42,3.75-8.45-1.87-18.73-2.27-19.44-.19-.33-.32-.56-.52-.88-4.95-8.09-9.24-9.41-15.67-17.26-2.39-2.92-2.93-4.12-3.24-5.18-1.02-3.47.51-4.91,0-8.75-.63-4.72-3.65-7.84-4.21-8.42-3.18-3.29-6.54-3.4-9.07-4.54-8.82-3.96-6.87-20.12-12.47-53.57-1.17-6.99-1.77-9.38-2.43-15.43-1.12-10.32-.83-16.81-.65-27.86.47-29.26-.67-41.58,4.54-43.41,3.05-1.08,8.73,1.31,12.96-2.92h0c.95-.95,4.49-4.49,4.54-9.39.05-4.51-2.88-7.66-3.89-8.75-1.94-2.09-2.58-1.52-4.54-3.56-.4-.42-4.22-4.5-4.21-10.04,0-4.18,2.18-3.94,1.94-7.45-.34-5.13-5.19-8.89-3.56-11.34,0,0,0,0,0,0,15.13-22.69,17.17-43.73,17.17-43.73.52-5.38.78-8.07,0-10.04-5.11-12.93-31.86-14.3-31.42-17.49.13-.97,2.57-.67,3.56-2.59,1.82-3.52-4.05-9.05-2.92-10.37,1.2-1.4,7.58,5.13,11.34,3.56,8.35-3.49-.18-45.37-.32-45.35,0,0,0,0,0,0-.12.12-9.32,3.89-11.01,1.62-1.38-1.85,3.73-5.71,2.27-8.42-1.41-2.61-8.77-3.98-10.11-5.44-.31-.34-.58-.71-.58-.71-.53-.73-.82-1.37-.95-1.67-.7-1.63-1.43-4.24-1.97-5.46-1.7-3.81-6.54-5.16-7.77-5.51-1.86-.52-3.46-.55-4.5-.5"/>
  <path class="cls-1" d="M340.91,491.08c1.8-.03,6.35-.18,8.75-3.24,1.66-2.11,2.15-5.75.65-8.1-1.88-2.93-6.25-2.78-6.32-4.54-.02-.51.47-.81,1.6-1.95,2.63-2.66,5.24-2.42,7.1-4.48,2.03-2.24,1.75-5.64,1.51-8.64-.16-1.98-.64-4.06-1.62-6.32-1.99-4.59-4.74-6.9-8.1-10.37-6.39-6.58-9.58-9.87-11.01-14.09-2.47-7.26,1.34-10.48-1.94-14.42-3.07-3.68-7.6-2.35-11.34-7.13-1.66-2.12-2.2-4.23-2.59-5.83-3.93-16.04-13.28-56.04-13.28-56.04,0,0-1.7-4.06-2.27-5.83-.7-2.17-.93-4.8,2.27-20.41.11-.55.41-1.99.32-3.89-.07-1.5-.34-2.59-.44-3.03-.42-1.78-.52-3.97-.74-8.35-1.33-27.36,5.23-44.83,5.23-44.83.56-1.48,1.04-2.65,1.3-3.24,4.7.84,8.27.23,10.37-.32,2.97-.78,3.79-1.67,4.17-2.21,1.42-2,1.18-5.33-.44-7.35-2.26-2.8-5.94-1.52-7.13-4.05-.91-1.94.88-3.49-.32-5.51-.87-1.47-2.62-1.99-3.56-2.27-3.2-.95-4.94.55-6.16-.65-1.24-1.22-.49-3.82-.4-4.11.11-.39.51-1.7,1.7-2.69,2.17-1.82,4.35-.39,5.83-1.78,1.52-1.42,1.3-4.86-.16-6.96-1.93-2.79-6.98-3.4-6.98-3.4.03-.04,15.68-28.04,21.88-50.38.49-1.78,1.1-4.14.16-6.64-1.56-4.16-8.46-6.61-22.19-11.34-2.4-.83-3.36-1.11-4.7-1.3-2.81-.38-3.73.17-4.7-.65-1.3-1.1-.22-2.62-1.3-5.67-1.08-3.07-3.03-3.65-2.59-5.18.59-2.05,3.51-1.55,4.21-3.4,1.42-3.73-6.78-14.22-6.72-15.27,0,0,0,0,0-.01,0,0,.19-.63,16.6,3.62h0s.45-8.85,1.3-25.59c-2.82.33-5.99.88-9.39,1.78-2.16.57-4.15,1.21-5.97,1.88,0-.03,1.91-6.87,1.92-6.9.01-.05,2.42-8.7,2.43-8.75-4.15-2.24-7.24-3.07-9.39-3.4-.7-.11-1.77-.25-2.11-.97-.72-1.54,2.74-3.32,2.73-6.46,0-2.32-1.92-4.36-3.7-5.2-.64-.3-2.1-.99-3.24-.32-1.17.69-1.66,2.61-.97,4.7.9,50.51.75,64.08.32,64.63-.11.14-1.46.97-1.46.97,0,0,0,0,0,0-1.17.33-5.8.68-7.94.81-3.14.19-4.67.12-5.67,1.3-1.18,1.4-1.14,3.99,0,4.86.72.55,1.51.15,3.4-.16,4.99-.82,9.83.29,9.83.29h0s2.01,17.34,1.54,23.32c-.03.43-.09,1.05.12,1.82.62,2.2,2.55,2.34,3.62,4.35.2.37.28,1.83.43,4.72.22,4.08.13,4.68-.31,5.3-.78,1.12-1.75.92-2.61,2.32-.66,1.08-.77,2.15-.81,2.75-.27,4.01.53,17.78.49,23.81-.07,11-3.04,13.56-4.37,14.42-.61.39-1.1.57-1.78.81-7.35,2.61-15.76-1.32-18.63-.16-1.84.74-2.57,2.09-2.57,2.09,0,.01-.01.03-.02.03-1.04,1.98,1.88,5.41,1.13,6.95-.92,1.88-6.47-.72-8.75,1.78-1.68,1.84.36,4.31-1.46,6.64-1.71,2.19-4.23.92-6.32,3.24-1.55,1.72-2.21,4.71-1.08,6.54,1.34,2.16,4.93,2.29,7.39,2.37,3.35.12,5.05-.73,6.64.49,1.13.86,1.45,2.19,1.62,2.92,3.66,15.83,4.21,22.84,4.21,22.84,1.14,14.67.81,17.17.49,18.95-.35,1.9-.83,3.76-1,6.87-.22,3.96.27,6.32,1,11.92.83,6.37,1.24,9.56,1.22,11.5-.04,3.31-.7,6.96-2.03,14.26-.34,1.87-.3,1.53-1.46,7.61-1,5.24-1.15,6.18-1.62,8.58-1,5.14-1.71,8.24-2.27,10.85-2.55,11.9-4.27,24.68-7.94,31.91-.97,1.91-2,3.28-3.4,4.37-2.07,1.61-3.45,1.43-5.83,2.75-.5.28-3.81,2.12-5.41,5.22-2.66,5.14,1.56,9.44-1.39,14.77-.36.66-.58.87-2.76,3.17-6.89,7.29-10.37,10.98-11.99,13.12-3.67,4.86-5.86,7.76-5.99,12.15-.02.71-.1,6.24,3.73,10.37,3.76,4.06,8.91,4.19,8.78,5.59-.16,1.72-7.73.87-9.59,4.61-1.38,2.78.32,7.77.32,7.77,0,0,10.69,3.89,10.69,3.89,10.55,1.3,46.77.59,119.21-.81Z"/>
</svg>